<svg xmlns="http://www.w3.org/2000/svg" viewBox="0 0 256 242" preserveAspectRatio="xMidYMid">
  <defs>
    <linearGradient id="a" x1="58.972%" x2="37.191%" y1="7.411%" y2="103.762%">
      <stop offset="0" stop-color="#114A8B"/>
      <stop offset="1" stop-color="#0669BC"/>
    </linearGradient>
    <linearGradient id="b" x1="59.72%" x2="52.691%" y1="52.619%" y2="55.744%">
      <stop offset="0" stop-opacity=".3"/>
      <stop offset=".071" stop-opacity=".2"/>
      <stop offset=".321" stop-opacity=".1"/>
      <stop offset=".623" stop-opacity=".05"/>
      <stop offset="1" stop-opacity="0"/>
    </linearGradient>
    <linearGradient id="c" x1="37.279%" x2="62.473%" y1="4.6%" y2="99.979%">
      <stop offset="0" stop-color="#3CCBF4"/>
      <stop offset="1" stop-color="#2892DF"/>
    </linearGradient>
  </defs>
  <path fill="url(#a)" d="M85.343 0h69.382L82.858 223.27c-1.496 5.678-6.674 9.63-12.56 9.63H18.204c-4.63 0-8.734-2.984-10.17-7.38L.639 202.322c-2.186-6.694 1.46-13.927 8.114-16.2l.26-.086L135.672 140.1 85.343 0Z"/>
  <path fill="url(#b)" d="M188.245 90.985H79.587c-2.733.004-4.943 2.22-4.94 4.952a4.955 4.955 0 0 0 1.242 3.271l80.17 87.57c2.86 3.12 6.88 4.905 11.087 4.922h62.87l-42.771-100.715Z"/>
  <path fill="url(#c)" d="m85.343 0-2.8 9.198c-4.886 16.073.36 33.54 13.41 44.683l87.106 80.224-43.9 56.58H247.27c5.936-.012 10.738-4.83 10.73-10.766V90.985c.007-5.937-4.793-10.754-10.73-10.766l-69.025.001L85.343 0Z"/>
</svg>